<?xml version="1.0" standalone="no"?><!DOCTYPE svg PUBLIC "-//W3C//DTD SVG 1.1//EN" "http://www.w3.org/Graphics/SVG/1.1/DTD/svg11.dtd"><svg t="1537404404449" class="icon" style="" viewBox="0 0 1024 1024" version="1.1" xmlns="http://www.w3.org/2000/svg" p-id="10126" xmlns:xlink="http://www.w3.org/1999/xlink" width="32" height="32"><defs><style type="text/css"></style></defs><path d="M215.43424 953.69216c-79.79008 0-144.70144-69.01248-144.70144-153.84576V224.03584c0-84.82816 69.36064-153.84576 154.60864-153.84576h510.91968c84.93568 0 154.0352 69.01248 154.0352 153.84576v32.5632l2.31936 1.7408c38.5792 28.98944 61.61408 75.91936 61.61408 125.53728v415.96928c0 84.82816-64.94208 153.84576-144.76288 153.84576H215.43424z m9.9072-831.17568c-56.40192 0-102.28736 45.5424-102.28736 101.51936V799.8464c0 55.98208 41.44128 101.51936 92.37504 101.51936H809.5232c50.93888 0 92.38016-45.5424 92.38016-101.51936V383.87712c0-55.98208-41.44128-101.51936-92.38016-101.51936H288.70144c-14.42304 0-26.15808-11.73504-26.15808-26.15808s11.73504-26.1632 26.15808-26.1632h520.82688c7.20384 0 14.16192 1.13152 21.51424 2.32448l6.73792 1.09568 0.18432-6.79424v-2.62144c0-55.98208-45.62432-101.51936-101.70368-101.51936H225.34144z" fill="#040000" p-id="10127"></path><path d="M512.47616 825.81504a26.1888 26.1888 0 0 1-26.15808-26.15808v-37.77536H352.64c-14.42304 0-26.15808-11.73504-26.15808-26.15808s11.73504-26.1632 26.15808-26.1632h133.67808V634.0096H352.64a26.19392 26.19392 0 0 1-26.15808-26.16832 26.1888 26.1888 0 0 1 26.15808-26.15296h133.67808v-33.36704l-3.85024-1.37728c-9.74336-3.48672-18.5344-8.35072-26.13248-14.464L336.31744 436.4288a26.30656 26.30656 0 0 1-4.0704-36.79744 26.1376 26.1376 0 0 1 20.46464-9.74848c5.99552 0 11.64288 1.9712 16.32256 5.69344l120.00256 96.0256a37.49888 37.49888 0 0 0 23.44448 8.22272 37.48864 37.48864 0 0 0 23.45984-8.23808l119.99744-95.95392a26.55744 26.55744 0 0 1 16.45568-5.65248c8.00256 0 15.40608 3.53792 20.32128 9.71776 9.00096 11.29472 7.168 27.8016-4.0704 36.80256l-120.00256 96.03072c-7.63392 6.0928-16.43008 10.94144-26.1376 14.40256l-3.85536 1.3824v33.36704h133.67808c14.42304 0 26.1632 11.73504 26.1632 26.15808s-11.74016 26.1632-26.1632 26.1632h-133.67808v75.5456h133.67808c14.42304 0 26.1632 11.74016 26.1632 26.1632s-11.74016 26.15808-26.1632 26.15808h-133.67296v37.77536a26.20416 26.20416 0 0 1-26.17856 26.16832z" fill="#040000" p-id="10128"></path></svg>