<?xml version="1.0" standalone="no"?><!DOCTYPE svg PUBLIC "-//W3C//DTD SVG 1.1//EN" "http://www.w3.org/Graphics/SVG/1.1/DTD/svg11.dtd"><svg t="1543884838187" class="icon" style="" viewBox="0 0 1024 1024" version="1.1" xmlns="http://www.w3.org/2000/svg" p-id="5515" xmlns:xlink="http://www.w3.org/1999/xlink" width="32" height="32"><defs><style type="text/css"></style></defs><path d="M510.635 484.966a241.664 241.664 0 0 0 240.571-240.571c0-131.96-105.608-243.44-240.571-243.44A239.753 239.753 0 0 0 270.13 241.528c0 131.96 108.544 243.44 240.504 243.44z m0-425.3a182.818 182.818 0 0 1 181.862 181.861A182.818 182.818 0 0 1 510.635 423.39a182.818 182.818 0 0 1-181.863-181.863 182.818 182.818 0 0 1 181.863-181.93z m440.047 721.578c-44.032-164.25-196.608-281.6-369.596-281.6H440.252a380.245 380.245 0 0 0-366.66 281.6 147.456 147.456 0 0 0 26.35 129.092c29.355 38.161 70.452 58.71 117.42 58.71h589.55c46.967 0 88.064-20.549 117.419-58.71 29.286-35.226 38.092-82.125 26.35-129.024z m-73.319 93.866a87.518 87.518 0 0 1-70.451 35.226h-589.62c-29.354 0-52.77-11.742-70.382-35.226-17.613-23.415-23.484-49.834-14.677-79.189 35.225-137.899 161.314-237.568 308.019-237.568h140.834c146.637 0 272.793 99.67 310.955 240.504 8.738 26.419 2.867 52.838-14.678 76.253z" fill="" p-id="5516"></path></svg>