<?xml version="1.0" standalone="no"?><!DOCTYPE svg PUBLIC "-//W3C//DTD SVG 1.1//EN" "http://www.w3.org/Graphics/SVG/1.1/DTD/svg11.dtd"><svg t="1537440779405" class="icon" style="" viewBox="0 0 1025 1024" version="1.1" xmlns="http://www.w3.org/2000/svg" p-id="22125" xmlns:xlink="http://www.w3.org/1999/xlink" width="32.03125" height="32"><defs><style type="text/css"></style></defs><path d="M213.5 536.45h355.05c14.85 0 27.27-12.51 27.27-27.51 0-14.97-12.42-27.48-27.27-27.48H213.5c-14.85 0-27.24 12.51-27.24 27.48 0 15 12.39 27.51 27.24 27.51z m0 214.8h142.02c14.85 0 27.27-12.51 27.27-27.51s-12.42-27.51-27.27-27.51H213.5c-14.85 0-27.24 12.51-27.24 27.51s12.39 27.51 27.24 27.51z m138.63-429.57h216.42c14.85 0 27.27-12.51 27.27-27.48s-12.42-27.51-27.27-27.51H213.5c-14.85 0-27.24 12.51-27.24 27.51s12.39 27.48 27.24 27.48h138.63z m496.83-199.44c-15.81-26.76-40.53-45.78-69.12-56.76-19.14-7.35-39.27-7.56-59.37-7.56H182.12c-17.64 0-34.74-0.06-52.17 4.35C72.89 76.7 32 131.54 32 190.43v639.09c0 38.52 14.16 75.63 42.81 101.79 23.22 21.24 52.62 32.94 83.85 34.59 6.12 0.33 12.3 0.09 18.42 0.09h237.24c14.88 0 27.27-12.51 27.27-27.51 0-14.97-12.39-27.48-27.27-27.48H163.76c-2.76 0-5.52-0.09-8.22-0.3-0.63-0.03-1.29-0.09-1.92-0.18 2.07 0.27 3.96 0.48-2.76-0.3 0.9 0.09 1.86 0.21 2.76 0.3-0.6-0.06-1.2-0.15-1.65-0.24-3.51-0.63-6.99-1.5-10.44-2.49-2.76-0.78-5.43-1.74-8.1-2.76 0.15 0.06 0.3 0.15 0.48 0.24 5.13 2.31-6.24-2.43-0.96-0.42 0.15 0.06 0.33 0.12 0.51 0.18-1.2-0.57-2.4-1.14-3.57-1.74-2.7-1.29-5.28-2.82-7.83-4.41-1.32-0.84-5.82-4.17-6.75-4.77 0.84 0.72 1.71 1.44 2.58 2.13-2.55-2.01-3.09-2.46-2.58-2.13-3.66-3.12-7.08-6.54-10.35-10.14-0.87-0.96-1.71-1.98-2.52-3 0.09 0.12 0.18 0.27 0.27 0.42 3.3 4.5-4.17-5.13-0.63-0.84 0.12 0.12 0.24 0.27 0.36 0.42-1.95-2.67-3.75-5.49-5.43-8.37-1.53-2.58-2.91-5.25-4.2-7.98-0.15-0.3-0.33-0.69-0.51-1.11 0.27 0.69 0.54 1.41 0.81 2.13-2.7-6.54-1.71-4.11-0.81-2.13-0.27-0.69-0.54-1.41-0.78-2.13-1.83-5.07-3.15-10.29-4.17-15.6 0.09 0.42-0.09-0.45-0.63-3.78 0.21 1.26 0.45 2.55 0.66 3.81 0-0.72-0.66-5.94-0.75-7.5-0.09-1.59-0.09-3.21-0.09-4.83V190.4c0-2.13 0.06-4.29 0.18-6.39 0.06-1.35 0.21-2.7 0.33-4.05-0.03 0.15-0.06 0.27-0.06 0.42-0.93 5.76 0.69-6.96 0.12-1.11 0 0.21-0.03 0.45-0.06 0.66 1.05-6.42 2.82-12.72 5.04-18.87 0.09-0.24 0.21-0.57 0.33-0.9-0.27 0.6-0.57 1.23-0.81 1.83 2.91-6.72 1.65-3.87 0.81-1.83 0.33-0.75 0.72-1.5 1.08-2.25 1.29-2.7 2.79-5.34 4.32-7.92 1.44-2.43 3.03-4.77 4.65-7.08-0.12 0.15-0.24 0.3-0.36 0.42-3.48 4.35 3.87-5.4 0.63-0.84-0.12 0.15-0.18 0.3-0.27 0.42a92.7 92.7 0 0 1 3.51-4.08c1.98-2.22 4.14-4.32 6.3-6.33 0.9-0.84 3.93-3.3 5.04-4.26-0.9 0.63-1.77 1.23-2.58 1.89 3.18-2.46 3.45-2.61 2.58-1.89 4.38-3.15 9.06-5.91 13.89-8.34 0.6-0.3 1.23-0.6 1.83-0.9-0.36 0.15-0.69 0.3-0.99 0.45-1.47 0.63-0.96 0.42 0 0 0.63-0.3 1.65-0.75 3.21-1.47-0.72 0.33-1.47 0.69-2.22 1.02 0.48-0.21 0.93-0.39 1.29-0.54 2.85-1.11 5.73-1.98 8.64-2.82 2.97-0.81 5.94-1.47 8.97-2.04 0.3-0.06 0.66-0.12 1.08-0.18-0.72 0.06-1.47 0.15-2.19 0.24 7.35-0.96 4.38-0.6 2.19-0.24 1.35-0.12 2.7-0.24 4.05-0.33 2.55-0.15 5.1-0.18 7.65-0.18H737.87c2.94 0 5.85 0.24 8.76 0.51-0.12-0.03-0.27-0.06-0.42-0.09-5.73-0.9 6.87 0.72 1.08 0.15-0.24 0-0.45-0.03-0.66-0.06 1.89 0.3 3.75 0.69 5.64 1.11 3 0.66 5.91 1.53 8.82 2.46 1.2 0.39 4.83 1.86 6.27 2.4-0.96-0.48-1.92-0.96-2.94-1.38 3.78 1.65 4.02 1.8 2.94 1.38 4.86 2.34 9.51 5.07 14.01 8.13 0.54 0.36 1.05 0.72 1.56 1.11-0.45-0.33-0.87-0.66-1.17-0.9-0.57-0.42-0.42-0.33 0 0 0.48 0.36 1.47 1.08 3.21 2.43-0.66-0.51-1.35-1.02-2.04-1.53 0.45 0.33 0.87 0.69 1.17 0.93 2.28 1.92 4.44 3.96 6.57 6.06s4.08 4.32 6 6.6c0.15 0.18 0.36 0.45 0.6 0.72-0.39-0.54-0.75-1.08-1.17-1.59 4.38 5.76 2.52 3.27 1.17 1.59 0.75 1.08 1.53 2.19 2.25 3.27 2.64 3.96 4.95 8.13 6.99 12.39-0.06-0.21 0.36 0.63 1.62 3.42-0.54-1.17-1.05-2.31-1.62-3.42 0.09 0.42 2.1 5.34 2.61 6.81 1.11 3.42 1.98 6.87 2.76 10.41 0.3 1.38 0.54 2.76 0.78 4.14-0.03-0.21-0.06-0.45-0.09-0.66-0.63-5.85 1.14 6.87 0.15 1.08a1.77 1.77 0 0 1-0.06-0.42c0.3 2.94 0.45 5.91 0.51 8.85v185.25c0 15 12.39 27.48 27.27 27.48 14.85 0 27.27-12.51 27.27-27.48V190.91c-0.03-24.06-6.48-47.97-18.75-68.67z m92.25 662.16h-55.77L776.6 637.58c44.79-15.21 77.13-55.98 77.13-104.28 0-61.2-51.63-111-115.11-111-63.51 0-115.14 49.8-115.14 111 0 48.3 32.37 89.07 77.16 104.28L591.77 784.4h-55.74c-28.05 0-50.82 21.96-50.82 48.99v78.96c0 27.03 22.8 49.02 50.82 49.02h405.12c28.02-0.03 50.85-21.99 50.85-49.05v-78.96c0.03-26.97-22.77-48.96-50.79-48.96M667.07 533.3c0-38.04 32.04-69 71.55-69 39.45 0 71.55 30.93 71.55 69 0 37.8-31.74 68.55-70.89 68.91h-1.38c-39.09-0.36-70.83-31.08-70.83-68.91m64.83 134.37l12.84-0.78 87.12 117.51H645.35l86.55-116.73m216.57 244.68c0 3.81-3.3 6.99-7.26 6.99H536.03c-3.93 0-7.23-3.18-7.23-6.99v-78.93c0-3.81 3.3-6.99 7.23-6.99h405.21c3.93 0 7.26 3.18 7.26 6.99l-0.03 78.93z" p-id="22126"></path></svg>