<?xml version="1.0" standalone="no"?><!DOCTYPE svg PUBLIC "-//W3C//DTD SVG 1.1//EN" "http://www.w3.org/Graphics/SVG/1.1/DTD/svg11.dtd"><svg t="1537404498574" class="icon" style="" viewBox="0 0 1024 1024" version="1.1" xmlns="http://www.w3.org/2000/svg" p-id="12169" xmlns:xlink="http://www.w3.org/1999/xlink" width="32" height="32"><defs><style type="text/css"></style></defs><path d="M899.762 723.703c-19.198-58.751-49.324-109.179-89.661-150.006-34.141-34.556-75.461-62.158-122.812-82.042-58.181-24.43-110.963-31.065-136.539-32.857V410.94c0-1.307-0.091-2.592-0.25-3.856 80.98-14.175 142.724-84.995 142.724-169.97 0-95.15-77.41-172.56-172.561-172.56-95.15 0-172.56 77.41-172.56 172.56 0 84.556 61.136 155.097 141.526 169.757a30.849 30.849 0 0 0-0.277 4.069v47.822c-25.375 1.738-78.482 8.294-137.065 32.893-47.352 19.883-88.672 47.486-122.813 82.042-40.415 40.906-70.58 91.45-89.771 150.349-57.057 12.192-99.976 62.991-99.976 123.633 0 69.71 56.713 126.423 126.424 126.423S292.575 917.39 292.575 847.68c0-56.63-37.424-104.68-88.839-120.722 31.308-83.118 88.484-142.881 170.29-177.832 48.22-20.6 92.82-26.858 115.326-28.758v204.663c-54.924 13.752-95.725 63.522-95.725 122.648 0 69.71 56.713 126.423 126.424 126.423s126.424-56.713 126.424-126.423c0-59.126-40.801-108.896-95.725-122.648V520.36c22.198 1.867 65.296 7.971 112.767 27.904 83.037 34.869 140.951 95.078 172.486 179.143-50.7 16.467-87.456 64.154-87.456 120.273 0 69.71 56.713 126.423 126.423 126.423 69.712 0 126.425-56.713 126.425-126.423 0.001-61.227-43.752-112.422-101.633-123.977zM231.178 847.68c0 35.855-29.17 65.024-65.026 65.024s-65.026-29.169-65.026-65.024c0-35.856 29.17-65.028 65.026-65.028s65.026 29.172 65.026 65.028z m178.324-610.566c0-61.294 49.866-111.16 111.16-111.16 61.296 0 111.163 49.866 111.163 111.16s-49.866 111.16-111.162 111.16c-61.294 0-111.16-49.866-111.16-111.16z m175.575 610.566c0 35.855-29.17 65.024-65.026 65.024s-65.026-29.169-65.026-65.024c0-35.856 29.17-65.028 65.026-65.028s65.026 29.172 65.026 65.028z m289.893 65.024c-35.855 0-65.025-29.169-65.025-65.024 0-35.856 29.17-65.028 65.025-65.028 35.857 0 65.027 29.172 65.027 65.028 0 35.855-29.17 65.024-65.027 65.024z" fill="" p-id="12170"></path></svg>