<?xml version="1.0" standalone="no"?><!DOCTYPE svg PUBLIC "-//W3C//DTD SVG 1.1//EN" "http://www.w3.org/Graphics/SVG/1.1/DTD/svg11.dtd"><svg t="1537440896288" class="icon" style="" viewBox="0 0 1024 1024" version="1.1" xmlns="http://www.w3.org/2000/svg" p-id="24260" xmlns:xlink="http://www.w3.org/1999/xlink" width="32" height="32"><defs><style type="text/css"></style></defs><path d="M1024.050773 682.666667a170.666667 170.666667 0 0 1-170.666666 170.666666 168.832 168.832 0 0 1-52.522667-9.088 466.901333 466.901333 0 0 1-458.154667 119.466667 170.197333 170.197333 0 0 1-271.616-204.16 466.261333 466.261333 0 0 1 0-494.933333 170.154667 170.154667 0 0 1 271.616-204.16A468.181333 468.181333 0 0 1 938.71744 512c0 7.765333-0.768 15.36-1.152 23.04A169.941333 169.941333 0 0 1 1024.050773 682.666667zM213.384107 938.666667a85.333333 85.333333 0 1 0-85.333334-85.333334 85.333333 85.333333 0 0 0 85.333334 85.333334zM213.384107 85.333333a85.333333 85.333333 0 1 0 85.333333 85.333334 85.333333 85.333333 0 0 0-85.333333-85.333334z m256 42.666667a383.658667 383.658667 0 0 0-88.576 10.666667A168.490667 168.490667 0 0 1 384.050773 170.666667a170.666667 170.666667 0 0 1-170.666666 170.666666 168.533333 168.533333 0 0 1-77.397334-19.370666 382.122667 382.122667 0 0 0 0 380.074666A168.533333 168.533333 0 0 1 213.384107 682.666667a170.666667 170.666667 0 0 1 170.666666 170.666666 168.490667 168.490667 0 0 1-3.242666 32 380.16 380.16 0 0 0 346.069333-89.045333A169.984 169.984 0 0 1 853.384107 512a384 384 0 0 0-384-384z m384 469.333333a85.333333 85.333333 0 1 0 85.333333 85.333334 85.333333 85.333333 0 0 0-85.333333-85.333334z" p-id="24261"></path></svg>