<?xml version="1.0" standalone="no"?><!DOCTYPE svg PUBLIC "-//W3C//DTD SVG 1.1//EN" "http://www.w3.org/Graphics/SVG/1.1/DTD/svg11.dtd"><svg t="1537404442761" class="icon" style="" viewBox="0 0 1024 1024" version="1.1" xmlns="http://www.w3.org/2000/svg" p-id="10885" xmlns:xlink="http://www.w3.org/1999/xlink" width="32" height="32"><defs><style type="text/css"></style></defs><path d="M527.7952 85.28896a35.6608 35.6608 0 0 0-37.15072 4.05504c-0.49152 0.4096-51.9424 40.59648-108.71808 81.76128C283.12576 242.70848 254.33088 254.62784 248.51456 256.512H94.12608c-28.91776 0-54.27712 11.79648-71.48032 33.26464-14.82752 18.432-22.65088 42.60352-22.65088 69.88288v303.61088c0 56.8576 46.94016 103.14752 104.69888 103.14752h43.38176c19.37408 0 35.10272-15.48288 35.10272-34.57536 0-19.0464-15.72864-34.48832-35.10272-34.48832h-43.38176c-19.00544 0-34.48832-15.31392-34.48832-34.07872v-303.616c0-12.73856 3.11296-34.03776 23.92064-34.03776h156.7232c17.98144 0 45.58848-7.29088 165.97504-94.04928a3460.06528 3460.06528 0 0 0 60.58496-44.65152V831.1808a2902.1952 2902.1952 0 0 0-47.59552-38.79424c-110.06976-87.73632-137.30304-95.03232-155.78112-95.03232-19.37408 0-35.10272 15.44704-35.10272 34.48832 0 18.10432 14.17216 32.94208 32.1536 34.41152 5.12 1.7664 31.74912 13.35296 120.87808 84.87424 50.9952 40.91904 96.7936 80.85504 97.24416 81.22368a35.36896 35.36896 0 0 0 23.35232 8.7296c4.83328 0 9.74848-0.98304 14.336-3.03616 12.61056-5.61152 20.72576-17.94048 20.72576-31.5392V116.3776a34.42688 34.42688 0 0 0-19.82464-31.08864z m271.70304 58.86464c-17.1264-8.97024-38.38464-2.58048-47.51872 14.29504-9.05216 16.83968-2.58048 37.72928 14.58688 46.65856 115.51744 60.42112 187.27936 177.408 187.27936 305.4592 0 127.96416-71.80288 244.99712-187.32032 305.41824-17.1264 8.92928-23.63392 29.86496-14.54592 46.69952 6.30784 11.63264 18.47296 18.34496 31.01184 18.34496a35.82976 35.82976 0 0 0 16.512-4.04992c138.496-72.45824 224.55296-212.84352 224.55296-366.4128 0-153.61536-86.06208-294.03136-224.55808-366.4128z m4.42368 494.8736c24.25344-38.4256 37.02784-82.87744 37.02784-128.4608a240.75776 240.75776 0 0 0-37.02784-128.50176 241.75104 241.75104 0 0 0-96.62976-87.3728c-17.28512-8.6016-38.4256-1.80224-47.18592 15.19616-8.77056 17.04448-1.8432 37.80608 15.44192 46.40768 58.74176 29.24544 95.20128 88.35584 95.20128 154.2656 0 65.90976-36.45952 125.01504-95.16032 154.22464-17.28512 8.64256-24.21248 29.40928-15.44192 46.4128 6.18496 12.00128 18.51392 18.95936 31.3344 18.95936a35.79904 35.79904 0 0 0 15.85664-3.72736 241.77664 241.77664 0 0 0 96.58368-87.40352z" p-id="10886"></path></svg>