<?xml version="1.0" standalone="no"?><!DOCTYPE svg PUBLIC "-//W3C//DTD SVG 1.1//EN" "http://www.w3.org/Graphics/SVG/1.1/DTD/svg11.dtd"><svg t="1537366690813" class="icon" style="" viewBox="0 0 1024 1024" version="1.1" xmlns="http://www.w3.org/2000/svg" p-id="1969" xmlns:xlink="http://www.w3.org/1999/xlink" width="32" height="32"><defs><style type="text/css"></style></defs><path d="M879.933 578.743c0.004-14.131-11.446-25.587-25.574-25.593h-0.009c-14.125 0-25.578 11.45-25.582 25.574l-0.085 263.185c0 1.649 0.157 3.298 0.476 4.919 0.365 1.869 1.245 13.36-3.644 19.294-4.302 5.226-13.938 6.324-21.264 6.324-45.522 0-142.015 0.01-188.029 0.015l-1.1-192.39c1.067-9.205 2.893-39.39-15.331-60.727-7.839-9.18-22.34-20.118-46.9-20.118h-3.72c-0.092-0.002-0.185-0.008-0.277-0.008h-0.008c-0.002 0-9.914 0.004-30.929 0.006-21.014-0.002-30.925-0.006-30.928-0.006h-0.008c-0.094 0-0.185 0.006-0.278 0.008h-3.72c-24.56 0-39.061 10.938-46.9 20.118-18.225 21.336-16.399 51.522-15.332 60.727l-1.1 192.39c-46.013-0.004-142.506-0.015-188.029-0.015-7.264 0-16.835-1.08-21.172-6.213-4.697-5.56-4.26-16.04-3.708-19.533 0.377-1.747 0.449-2.976 0.449-4.793l-0.084-263.183c-0.004-14.127-11.457-25.574-25.583-25.574h-0.008c-14.129 0.006-25.58 11.462-25.575 25.59l0.084 261.197c-1.282 9.34-3.143 36.875 14.834 58.71 9.378 11.389 27.531 24.965 60.763 24.965 60.988 0 213.462 0.018 213.462 0.018h0.004c14.07 0 25.501-11.364 25.582-25.436l1.256-219.565c0.008-1.49-0.052-2.614-0.301-4.072-0.89-6.422-0.199-17.874 3.39-22.012 1.24-1.428 3.92-2.153 7.969-2.153l34.933-0.002 34.935 0.002c4.047 0 6.729 0.724 7.968 2.153 3.589 4.138 4.279 15.59 3.39 22.012-0.247 1.459-0.31 2.58-0.3 4.072l1.256 219.565c0.08 14.072 11.512 25.438 25.585 25.436 0 0 152.474-0.018 213.462-0.018 33.233 0 51.386-13.577 60.763-24.965 17.978-21.837 16.116-49.372 14.834-58.71l0.083-261.194z" fill="#333303" p-id="1970"></path><path d="M989.123 523.03L621.742 128.235c-5.434-6.295-42.236-46.524-96.866-48.378-38.979-1.34-76.317 16.618-110.99 53.327-92.251 97.674-365.022 386.812-367.767 389.72-9.695 10.277-9.224 26.468 1.054 36.163 10.276 9.7 26.468 9.224 36.164-1.053 2.744-2.908 275.505-292.033 367.745-389.695 24.022-25.434 48.132-37.976 71.67-37.338 34.077 0.954 58.952 29.179 60.187 30.607 0.357 0.44 0.57 0.67 0.97 1.103l367.756 395.198a25.52 25.52 0 0 0 18.733 8.154 25.495 25.495 0 0 0 17.422-6.853c10.346-9.63 10.927-25.814 1.303-36.158z" fill="#333303" p-id="1971"></path></svg>