<?xml version="1.0" standalone="no"?><!DOCTYPE svg PUBLIC "-//W3C//DTD SVG 1.1//EN" "http://www.w3.org/Graphics/SVG/1.1/DTD/svg11.dtd"><svg t="1537404331691" class="icon" style="" viewBox="0 0 1024 1024" version="1.1" xmlns="http://www.w3.org/2000/svg" p-id="8081" xmlns:xlink="http://www.w3.org/1999/xlink" width="32" height="32"><defs><style type="text/css"></style></defs><path d="M382.350222 499.911111a227.555556 227.555556 0 1 1 250.026667 6.087111C794.112 561.863111 910.222222 715.377778 910.222222 896a28.444444 28.444444 0 0 1-56.888889 0C853.333333 699.619556 694.158222 540.444444 497.777778 540.444444S142.222222 699.619556 142.222222 896a28.444444 28.444444 0 0 1-56.888889 0c0-187.733333 125.411556-346.168889 297.016889-396.088889zM512 483.555556a170.666667 170.666667 0 1 0 0-341.333334 170.666667 170.666667 0 0 0 0 341.333334z m26.993778 104.789333l71.111111 213.333333a28.444444 28.444444 0 0 1-6.883556 29.098667l-71.111111 71.111111a28.444444 28.444444 0 0 1-40.220444 0l-71.111111-71.111111a28.444444 28.444444 0 0 1-6.883556-29.098667l71.111111-213.333333c8.647111-25.941333 45.340444-25.941333 53.987556 0z m-65.564445 214.641778L512 841.557333l38.570667-38.570666L512 687.274667l-38.570667 115.712z" p-id="8082"></path></svg>