<?xml version="1.0" standalone="no"?><!DOCTYPE svg PUBLIC "-//W3C//DTD SVG 1.1//EN" "http://www.w3.org/Graphics/SVG/1.1/DTD/svg11.dtd"><svg t="1537404902332" class="icon" style="" viewBox="0 0 1024 1024" version="1.1" xmlns="http://www.w3.org/2000/svg" p-id="17525" xmlns:xlink="http://www.w3.org/1999/xlink" width="32" height="32"><defs><style type="text/css"></style></defs><path d="M882.79 382.387c-52.07-162.355-195.507-279.526-364.288-279.526-168.14 0-311.116 116.326-363.673 277.785-71.27 5.402-127.744 68.685-127.744 145.895v106.65c0 80.716 61.721 146.406 137.574 146.406h73.651a38.4 38.4 0 0 0 38.4-38.4V418.509a38.4 38.4 0 0 0-38.4-38.4h-1.792C284.621 262.195 392.806 179.66 518.502 179.66c125.722 0 233.933 82.534 282.01 200.448H785.69a38.4 38.4 0 0 0-38.4 38.4V741.17c0 9.754 3.763 18.56 9.753 25.344-57.42 66.407-141.926 104.32-245.837 104.32a25.6 25.6 0 1 0 0 51.2c129.05 0 233.933-52.659 300.596-142.464h47.513c75.853 0 137.575-65.664 137.575-146.406v-106.65c0.025-72.217-49.383-132.224-114.1-144.128zM199.91 542.054v160.743h-35.25c-33.511 0-60.775-31.232-60.775-69.607V526.54c0-6.04 0.87-11.8 2.15-17.382 0.307-1.33 0.691-2.636 1.075-3.942 1.408-4.838 3.124-9.498 5.376-13.798 0.23-0.461 0.41-0.948 0.666-1.408 5.658-10.42 13.645-18.868 23.142-24.653a59.136 59.136 0 0 1 12.621-5.76c0.461-0.128 0.87-0.333 1.331-0.461 4.608-1.382 9.421-2.202 14.413-2.202h35.251v85.12z m720.205 91.11c0 38.375-27.264 69.607-60.774 69.607h-35.226V456.91h35.251c16.666 0 31.796 7.757 42.804 20.275a74.752 74.752 0 0 1 17.97 49.357v106.624z" p-id="17526"></path></svg>