<?xml version="1.0" standalone="no"?><!DOCTYPE svg PUBLIC "-//W3C//DTD SVG 1.1//EN" "http://www.w3.org/Graphics/SVG/1.1/DTD/svg11.dtd"><svg t="1537366922069" class="icon" style="" viewBox="0 0 1024 1024" version="1.1" xmlns="http://www.w3.org/2000/svg" p-id="6501" xmlns:xlink="http://www.w3.org/1999/xlink" width="32" height="32"><defs><style type="text/css"></style></defs><path d="M760.228571 547.314286H594.742857c-26.742857 0-48.685714 21.942857-48.685714 48.685714v165.485714c0 119.2 94.857143 214.171429 214.171428 214.171429 116.8 0 214.171429-94.857143 214.171429-214.171429s-94.971429-214.171429-214.171429-214.171428z m119.2 330.971428c-31.657143 31.657143-75.428571 48.685714-119.2 48.685715-46.285714 0-87.657143-17.028571-119.2-48.685715-31.657143-31.657143-48.685714-75.428571-48.685714-119.2V588.685714h167.885714c46.285714 0 87.657143 17.028571 119.2 51.085715 31.657143 31.657143 48.685714 75.428571 48.685715 119.2 0 46.285714-17.028571 87.657143-48.685715 119.314285zM594.742857 476.685714h165.485714c116.8 0 214.171429-94.857143 214.171429-214.171428s-94.857143-214.171429-214.171429-214.171429c-116.8 0-214.171429 94.857143-214.171428 214.171429v165.485714c0 26.857143 21.942857 48.685714 48.685714 48.685714z m-4.914286-216.571428c0-46.285714 17.028571-87.657143 48.685715-119.2 34.057143-31.657143 77.828571-48.685714 121.714285-48.685715 46.285714 0 87.657143 17.028571 119.2 51.085715 31.657143 31.657143 48.685714 75.428571 48.685715 119.2 0 46.285714-17.028571 87.657143-48.685715 119.2s-75.428571 48.685714-119.2 48.685714H589.828571v-170.285714zM265.142857 545.142857c-116.8 0-215.542857 97.028571-215.542857 216.342857 0 116.8 94.857143 211.771429 214.171429 211.771429 116.8 0 214.171429-94.857143 214.171428-214.171429V593.485714c0-26.742857-21.942857-48.685714-48.685714-48.685714m4.914286 214.171429c0 46.285714-17.028571 87.657143-48.685715 119.2-31.657143 31.657143-75.428571 48.685714-119.2 48.685714-46.285714 0-87.657143-17.028571-119.2-48.685714S98.285714 802.857143 98.285714 758.971429c0-46.285714 17.028571-87.657143 48.685715-119.2 29.257143-31.657143 70.628571-51.085714 116.8-51.085715h170.4v170.285715zM263.771429 48.457143c-119.2 0-214.171429 94.857143-214.171429 214.171428s94.857143 214.171429 214.171429 214.171429h165.485714c26.742857 0 48.685714-21.942857 48.685714-48.685714V262.514286C475.542857 143.314286 380.571429 48.457143 263.771429 48.457143z m167.885714 384.457143h-170.285714c-46.285714 0-87.657143-17.028571-119.2-48.685715s-48.685714-75.428571-48.685715-119.2c0-46.285714 17.028571-87.657143 48.685715-119.2 34.057143-36.457143 75.428571-53.485714 121.714285-53.485714s87.657143 17.028571 119.2 51.085714c31.657143 31.657143 48.685714 75.428571 48.685715 119.2v170.285715z" p-id="6502"></path></svg>