<?xml version="1.0" standalone="no"?><!DOCTYPE svg PUBLIC "-//W3C//DTD SVG 1.1//EN" "http://www.w3.org/Graphics/SVG/1.1/DTD/svg11.dtd"><svg t="1537440837086" class="icon" style="" viewBox="0 0 1156 1024" version="1.1" xmlns="http://www.w3.org/2000/svg" p-id="22865" xmlns:xlink="http://www.w3.org/1999/xlink" width="36.125" height="32"><defs><style type="text/css"></style></defs><path d="M946.441055 578.391709V92.06924a92.183046 92.183046 0 0 0-92.097691-92.097692H92.183046A92.183046 92.183046 0 0 0 0.085355 92.06924v486.322469a92.183046 92.183046 0 0 0 92.097691 92.06924h117.504932l2.446833 245.90681 252.137702-245.90681h390.099302a92.183046 92.183046 0 0 0 92.06924-92.06924z m-501.828569 43.758495l-185.248089 180.695841-1.792448-180.695841H92.154594A43.815398 43.815398 0 0 1 48.367647 578.391709V92.06924c0-24.155372 19.631575-43.786947 43.786947-43.786947h762.217221c24.155372 0 43.786947 19.631575 43.786947 43.786947v486.322469a43.815398 43.815398 0 0 1-43.786947 43.758495H444.612486zM1062.438054 198.534967h-75.08366v48.310744h75.08366c24.155372 0 43.786947 19.631575 43.786947 43.786947v402.361924a43.815398 43.815398 0 0 1-43.786947 43.786947h-179.927649v166.498513l-158.731238-166.498513h-239.619016v48.310744h218.906282l227.726265 238.907727v-238.907727h131.616904a92.183046 92.183046 0 0 0 92.097691-92.097691V290.632658a92.154594 92.154594 0 0 0-92.069239-92.097691z" fill="#666666" p-id="22866"></path><path d="M289.266983 342.812814m-35.023867 0a35.023867 35.023867 0 1 0 70.047734 0 35.023867 35.023867 0 1 0-70.047734 0Z" fill="#666666" p-id="22867"></path><path d="M414.311578 342.812814m-35.023867 0a35.023867 35.023867 0 1 0 70.047734 0 35.023867 35.023867 0 1 0-70.047734 0Z" fill="#666666" p-id="22868"></path><path d="M542.258231 342.812814m-35.023867 0a35.023867 35.023867 0 1 0 70.047734 0 35.023867 35.023867 0 1 0-70.047734 0Z" fill="#666666" p-id="22869"></path><path d="M668.497791 342.812814m-35.023867 0a35.023867 35.023867 0 1 0 70.047734 0 35.023867 35.023867 0 1 0-70.047734 0Z" fill="#666666" p-id="22870"></path></svg>