<?xml version="1.0" standalone="no"?><!DOCTYPE svg PUBLIC "-//W3C//DTD SVG 1.1//EN" "http://www.w3.org/Graphics/SVG/1.1/DTD/svg11.dtd"><svg t="1537404604428" class="icon" style="" viewBox="0 0 1035 1024" version="1.1" xmlns="http://www.w3.org/2000/svg" p-id="14221" xmlns:xlink="http://www.w3.org/1999/xlink" width="32.34375" height="32"><defs><style type="text/css"></style></defs><path d="M934.1 372.5c-36-1.8-69.3-21.6-87.3-53.1-18-31.5-18.9-70.2-1.8-102.6 4.5-9 4.5-19.8 0-27.9-2.7-4.5-6.3-8.1-10.8-10.8L640.7 66.5c-4.5-2.7-9-3.6-14.4-3.6-9.9 0-18.9 5.4-24.3 13.5-19.8 31.5-53.1 50.4-90 50.4s-70.2-18.9-90-50.4c-5.4-9-14.4-13.5-24.3-13.5-5.4 0-9.9 0.9-14.4 3.6L188.9 178.1c-4.5 2.7-8.1 6.3-10.8 10.8-5.4 9-5.4 18.9 0 27.9 17.1 32.4 17.1 71.1-1.8 102.6-18 31.5-50.4 51.3-87.3 53.1C73.7 373.4 62 386 62 401.3V624.5c0 5.4 0.9 9.9 3.6 14.4l0.9 0.9c4.5 9 13.5 13.5 23.4 14.4 36 1.8 68.4 21.6 86.4 52.2 18 30.6 18.9 68.4 2.7 100.8-7.2 13.5-1.8 30.6 11.7 37.8l194.4 111.6c4.5 2.7 9.9 3.6 14.4 3.6 9.9 0 18.9-4.5 24.3-13.5C443.6 917 476.9 899 512 899s68.4 18 88.2 47.7c5.4 8.1 14.4 13.5 24.3 13.5 5.4 0 9.9-0.9 14.4-3.6l194.4-112.5c13.5-8.1 18-24.3 11.7-37.8-16.2-32.4-15.3-69.3 2.7-100.8s50.4-51.3 86.4-52.2c9.9-0.9 18.9-5.4 23.4-14.4l0.9-0.9c2.7-4.5 3.6-9 3.6-14.4V401.3c0-15.3-11.7-27.9-27.9-28.8zM797.3 678.5c-22.5 39.6-27.9 86.4-14.4 130.5l-151.2 87.3C601.1 863 557.9 844.1 512 844.1c-45.9 0-89.1 18.9-119.7 52.2L241.1 809c13.5-43.2 8.1-90.9-14.4-130.5-23.4-40.5-62.1-68.4-107.1-78.3V426.5c45-9.9 83.7-37.8 107.1-78.3 23.4-40.5 28.8-89.1 13.5-133.2l149.4-86.4C420.2 163.7 464.3 183.5 512 183.5s90.9-19.8 122.4-54.9l149.4 86.4c-15.3 44.1-9.9 92.7 13.5 133.2s62.1 68.4 107.1 78.3v173.7c-45 9.9-83.7 37.8-107.1 78.3z" p-id="14222"></path><path d="M512 317.6c-108 0-196.2 88.2-196.2 196.2S404 710 512 710s196.2-88.2 196.2-196.2S620 317.6 512 317.6z m0 333.9c-76.5 0-137.7-62.1-137.7-137.7S435.5 375.2 512 375.2s137.7 62.1 137.7 137.7S588.5 651.5 512 651.5z" p-id="14223"></path></svg>