<?xml version="1.0" standalone="no"?><!DOCTYPE svg PUBLIC "-//W3C//DTD SVG 1.1//EN" "http://www.w3.org/Graphics/SVG/1.1/DTD/svg11.dtd"><svg t="1540867183745" class="icon" style="" viewBox="0 0 1296 1024" version="1.1" xmlns="http://www.w3.org/2000/svg" p-id="9973" xmlns:xlink="http://www.w3.org/1999/xlink" width="40.5" height="32"><defs><style type="text/css"></style></defs><path d="M1054.892827 133.984135H240.531983c-64.248439 0.043207-116.269367 52.107342-116.35578 116.312574V773.832911c0.086414 64.205232 52.107342 116.269367 116.312573 116.312574h814.360844c64.205232-0.086414 116.269367-52.107342 116.312574-116.312574V250.296709c0-64.205232-52.064135-116.269367-116.269367-116.312574zM1113.049114 773.832911c-0.043207 32.102616-26.053671 58.11308-58.156287 58.156287H240.531983c-32.102616-0.043207-58.11308-26.053671-58.156287-58.156287V250.296709c0.043207-32.102616 26.053671-58.11308 58.156287-58.156287h814.360844c32.102616 0.043207 58.11308 26.053671 58.156287 58.156287V773.832911z m0 0" fill="" p-id="9974"></path><path d="M709.627679 686.555274h300.935021c13.869367 0 25.059916-13.005232 25.059916-29.078143 0-16.072911-11.233755-29.078143-25.059916-29.078144h-300.935021c-13.869367 0-25.059916 13.005232-25.059915 29.078144 0 16.072911 11.233755 29.078143 25.059915 29.078143zM734.730802 541.164557h275.831898c13.869367 0 25.059916-13.005232 25.059916-29.078143 0-16.072911-11.233755-29.078143-25.059916-29.078144h-275.831898c-13.869367 0-25.059916 13.005232-25.059916 29.078144-0.043207 16.029705 11.190549 29.078143 25.059916 29.078143zM809.953755 395.730633h200.608945c13.869367 0 25.059916-13.005232 25.059916-29.078144 0-16.072911-11.233755-29.078143-25.059916-29.078143h-200.608945c-13.869367 0-25.059916 13.005232-25.059915 29.078143-0.043207 16.072911 11.190549 29.078143 25.059915 29.078144z" fill="" p-id="9975"></path><path d="M586.618059 680.117468c0.604895 4.968776-1.641857 9.851139-5.789705 12.702785-2.289958 1.425823-4.795949 2.462785-7.388354 3.154093-1.814684 3.1973-4.92557 5.487257-8.51173 6.308186-1.080169 0-2.117131 0.518481-3.1973 0.518481-1.901097 4.104641-5.616878 7.0427-10.067173 7.950042-1.59865 0.518481-3.802194 0.518481-5.271223 1.080169-1.080169 1.080169-2.117131 2.635612-3.1973 3.802194-2.246751 2.289958-5.271224 3.672574-8.468523 3.802194l-23.850127 2.117131c-4.795949 0.345654-9.419072-1.901097-12.184303-5.832912h-3.802194c-4.536709 2.505992-9.635105 3.845401-14.819916 3.802194h-2.635612c-2.333165 0.950549-4.968776 1.166582-7.388354 0.518481l-19.918313 1.857891c-2.333165 0.432068-4.795949 0.043207-6.91308-1.080169-5.789705 0.518481-11.665823 0.518481-17.455527 0-1.901097 0.604895-3.845401 0.950549-5.832911 1.080169h-1.59865l-19.054178-2.117131h-1.598649c-2.981266 0.648101-6.092152 0.432068-8.987005-0.518481-6.135359 0.216034-11.104135-1.080169-15.381603-3.802194h-3.802194c-2.765232 3.931814-7.388354 6.135359-12.184304 5.832911l-24.887088-2.117131c-4.752743-0.388861-8.943797-3.154093-11.190549-7.388354-1.59865-1.080169-3.1973-1.080169-4.795949-1.59865-4.579916-0.518481-8.51173-3.58616-10.067173-7.950042-1.080169 0-2.117131-0.518481-3.1973-0.518481-3.672574-0.648101-6.826667-2.981266-8.468523-6.351393-2.635612-0.604895-5.141603-1.685063-7.388354-3.154092-4.407089-2.592405-6.740253-7.647595-5.832912-12.702785l7.517975-45.971983c-36.336878-36.336878-56.730464-85.635781-56.644051-137.008608 0-108.448945 89.999662-196.806751 201.21384-196.806751s201.21384 88.357806 201.213839 196.806751c0.086414 51.372827-20.307173 100.67173-56.64405 137.008608l8.468523 46.576877zM352.048608 428.956624l-3.1973 17.498735h-17.066667l13.394093 8.468523c-1.080169 5.832911-2.160338 12.184304-3.197299 17.498734 4.191055-3.845401 8.64135-7.388354 13.394092-10.628861 5.31443 3.1973 11.233755 5.31443 15.468017 8.468523l-5.357637-15.381603 12.270717-9.505485c-5.444051-1.123376-11.320169-0.043207-16.634599-0.043207l-9.073417-16.375359z m31.886582 79.370802l15.55443-4.234261 10.196794 14.301434 2.160337-16.461772c5.011983-2.030717 10.24-3.45654 15.55443-4.234262l-15.55443-6.351392c0-5.832911 1.080169-11.104135 1.080169-16.418565l-11.276962 11.709029-15.554431-4.234261 8.036456 12.702784c-3.240506 4.709536-6.999494 8.987004-10.196793 13.221266z m62.131308-100.628523l-11.147342-32.18903-11.147342 32.18903H391.453165l27.65232 19.529451v1.080169l-9.030211 27.954768 25.53519-17.412321 25.448777 17.455528-9.030211-27.954768v-1.080169l27.65232-19.529451-33.614852-0.043207z m37.63308 74.618059l-15.55443 4.234262-11.320169-11.665823c0 5.832911 1.080169 11.104135 1.080169 16.418565l-15.554431 6.351393c5.357637 1.080169 11.276962 2.117131 15.554431 4.234261l2.160337 16.461772 9.116625-14.301434 16.634599 4.234261c-2.981266-4.579916-6.394599-8.814177-10.196793-12.702784l8.079662-13.264473z m36.423291-35.861603l-4.277468-17.498735-7.993249 16.418566c-5.876118 0-11.190549-1.080169-17.066667 0l12.270718 9.505485-5.314431 15.381603c4.277468-3.1973 10.153586-5.31443 15.468017-8.468523 4.709536 3.1973 9.159831 6.740253 13.350886 10.628861-1.080169-5.832911-2.160338-12.227511-3.197299-17.541941l13.350886-8.468523-16.591393 0.043207z m0 0" fill="" p-id="9976"></path></svg>