<?xml version="1.0" standalone="no"?><!DOCTYPE svg PUBLIC "-//W3C//DTD SVG 1.1//EN" "http://www.w3.org/Graphics/SVG/1.1/DTD/svg11.dtd"><svg t="1540965355667" class="icon" style="" viewBox="0 0 1239 1024" version="1.1" xmlns="http://www.w3.org/2000/svg" p-id="35968" xmlns:xlink="http://www.w3.org/1999/xlink" width="241.9921875" height="200"><defs><style type="text/css"></style></defs><path d="M1172.079356 934.764406l-145.277272-111.113404H428.826606a21.392833 21.392833 0 0 1-20.746198-21.500605v-68.920486h544.78977a80.829343 80.829343 0 0 0 80.667684-80.829343V294.542125h117.579751c11.531653 0 21.015629 9.322318 21.015629 20.800084l-0.107772 489.987476 0.053886 129.434721z m-955.402831-255.420723l-145.385045 111.059516V80.883229c0-15.088144 11.85497-26.943114 26.835342-26.943114h854.68947a26.943114 26.943114 0 0 1 26.835342 26.943114v571.517339c0 15.088144-11.801084 26.943114-26.835342 26.943115H216.622639z m934.441088-438.687787H1033.537862V80.883229a80.829343 80.829343 0 0 0-80.72157-80.829343H98.180708a80.829343 80.829343 0 0 0-80.775456 80.829343L17.459138 654.879335v136.493817c0 39.390833 23.709941 57.01163 47.258222 57.011629 12.932695 0 26.027048-4.957533 39.01363-14.926485l131.051308-100.228385h119.411882v68.920486c0 41.600168 33.463348 75.386834 74.632426 75.386834h579.815819l135.901068 104.000421c11.747198 8.999 24.248803 13.57933 36.103773 13.57933a42.139031 42.139031 0 0 0 19.021839-4.418671c16.704731-8.244593 26.29648-26.350366 26.296479-49.736989V315.342209a74.901858 74.901858 0 0 0-74.847971-74.686313z" p-id="35969"></path><path d="M236.776088 404.308372h72.207546V323.47903h-72.207546zM717.926222 404.308372h72.207546V323.47903h-72.207546zM477.324212 404.308372h72.207546V323.47903h-72.207546z" p-id="35970"></path></svg>