<?xml version="1.0" standalone="no"?><!DOCTYPE svg PUBLIC "-//W3C//DTD SVG 1.1//EN" "http://www.w3.org/Graphics/SVG/1.1/DTD/svg11.dtd"><svg t="1540964680531" class="icon" style="" viewBox="0 0 1024 1024" version="1.1" xmlns="http://www.w3.org/2000/svg" p-id="17361" xmlns:xlink="http://www.w3.org/1999/xlink" width="200" height="200"><defs><style type="text/css"></style></defs><path d="M360.856679 1023.68012 117.395977 1023.68012c-52.972135 0-96.059978-43.087842-96.059978-96.059978L21.335999 96.059978c0-52.972135 43.087842-96.059978 96.059978-96.059978l686.110708 0c52.972135 0 96.091966 43.087842 96.091966 96.059978l0 236.871173c0 8.828689-7.165313 15.994002-15.994002 15.994002s-15.994002-7.165313-15.994002-15.994002L867.610646 96.059978c0-35.314757-28.757216-64.071973-64.103961-64.071973L117.395977 31.988004c-35.314757 0-64.071973 28.757216-64.071973 64.071973l0 831.560165c0 35.314757 28.757216 64.071973 64.071973 64.071973l243.49269 0c8.828689 0 15.994002 7.165313 15.994002 15.994002S369.717356 1023.68012 360.856679 1023.68012z" p-id="17362"></path><path d="M728.494814 937.824316c-117.651881 0-213.35999-95.708109-213.35999-213.35999s95.708109-213.35999 213.35999-213.35999 213.35999 95.740097 213.35999 213.35999S846.114707 937.824316 728.494814 937.824316zM728.494814 543.09234c-99.994502 0-181.371986 81.345495-181.371986 181.371986 0 99.994502 81.377483 181.371986 181.371986 181.371986s181.371986-81.377483 181.371986-181.371986C909.8668 624.469824 828.489317 543.09234 728.494814 543.09234z" p-id="17363"></path><path d="M994.50706 1024c-4.094465 0-8.188929-1.567412-11.323754-4.670249l-116.020492-116.020492c-6.237661-6.237661-6.237661-16.377858 0-22.615519s16.377858-6.237661 22.615519 0l116.020492 116.020492c6.237661 6.237661 6.237661 16.377858 0 22.615519C1002.695989 1022.432588 998.601524 1024 994.50706 1024z" p-id="17364"></path><path d="M717.107085 291.410721 203.763589 291.410721c-8.828689 0-15.994002-7.165313-15.994002-15.994002s7.165313-15.994002 15.994002-15.994002l513.343496 0c8.828689 0 15.994002 7.165313 15.994002 15.994002S725.935774 291.410721 717.107085 291.410721z" p-id="17365"></path><path d="M472.046982 532.856179 203.763589 532.856179c-8.828689 0-15.994002-7.165313-15.994002-15.994002s7.165313-15.994002 15.994002-15.994002l268.283394 0c8.828689 0 15.994002 7.165313 15.994002 15.994002S480.875672 532.856179 472.046982 532.856179z" p-id="17366"></path><path d="M419.522679 774.269649 203.763589 774.269649c-8.828689 0-15.994002-7.165313-15.994002-15.994002s7.165313-15.994002 15.994002-15.994002l215.75909 0c8.828689 0 15.994002 7.165313 15.994002 15.994002S428.383356 774.269649 419.522679 774.269649z" p-id="17367"></path><path d="M621.239035 740.490316c-8.828689 0-15.994002-7.165313-15.994002-15.994002 0-67.97451 55.30726-123.281769 123.249781-123.281769 8.828689 0 15.994002 7.165313 15.994002 15.994002s-7.165313 15.994002-15.994002 15.994002c-50.317131 0-91.261777 40.944646-91.261777 91.293765C637.233038 733.325003 630.067725 740.490316 621.239035 740.490316z" p-id="17368"></path></svg>