<?xml version="1.0" standalone="no"?><!DOCTYPE svg PUBLIC "-//W3C//DTD SVG 1.1//EN" "http://www.w3.org/Graphics/SVG/1.1/DTD/svg11.dtd"><svg t="1540975459461" class="icon" style="" viewBox="0 0 1024 1024" version="1.1" xmlns="http://www.w3.org/2000/svg" p-id="23839" xmlns:xlink="http://www.w3.org/1999/xlink" width="32" height="32"><defs><style type="text/css"></style></defs><path d="M799.7 175.3c9 8.9 9 23.5 0.1 32.5-8.9 8.9-22.4 7.8-32.5 0.1-42-32.5-55-44.2-104-64.4-47.1-19.5-98.8-30.2-153.1-30.2-110.6 0-210.8 44.8-283.3 117.2-72.5 72.3-117.4 172.4-117.4 282.8 0 110.5 44.9 210.5 117.4 282.9 72.5 72.4 172.7 117.2 283.3 117.2 110.7 0 210.9-44.8 283.3-117.2 72.5-72.3 117.4-172.4 117.4-282.9 0-27.6-4.4-54.1-7.9-79.9-3.6-26.8-10.5-33.1-16-46.8-4.7-11.8 0.5-25.1 12.2-30.1 11.6-4.9 25.1 0.5 30.2 12.2 7.8 17.9 12.6 26 18.6 55.8 5.9 29 9 58.8 9 88.9 0 123.2-50 234.7-130.9 315.4-80.8 80.7-192.5 130.7-315.9 130.7-123.4 0-235.1-50-315.9-130.7-80.9-80.9-131-192.4-131-315.6 0-123.1 50-234.7 130.9-315.4C275 117.1 386.7 67.1 510.1 67.1c60.3 0 117.9 12 170.6 33.8 54.7 22.6 78.2 39.2 119 74.4z m120.2 6.7c9-9 23.6-9 32.7 0 9 9 9 23.5 0 32.5L546.7 619.9c-18.4 20.5-36 26.5-53.4 23.6-16-2.6-28.6-12.6-40.6-25.1h-0.1L273.7 439.8c-9-8.9-9-23.5 0-32.5 9-8.9 23.6-8.9 32.6 0l178.9 178.6-0.1 0.1 0.4 0.3c6.1 6.4 11.5 11.3 15.1 11.9 2 0.3 5.6-2.1 11.7-8.9 0.5-0.5 1-1.1 1.5-1.6L919.9 182z m0 0" fill="" p-id="23840"></path></svg>