<?xml version="1.0" standalone="no"?><!DOCTYPE svg PUBLIC "-//W3C//DTD SVG 1.1//EN" "http://www.w3.org/Graphics/SVG/1.1/DTD/svg11.dtd"><svg t="1537404970768" class="icon" style="" viewBox="0 0 1024 1024" version="1.1" xmlns="http://www.w3.org/2000/svg" p-id="20036" xmlns:xlink="http://www.w3.org/1999/xlink" width="32" height="32"><defs><style type="text/css"></style></defs><path d="M947.1 58H76.9C51 58 30 79 30 105v617.9c0 25.9 21 47.2 46.9 47.2H372v143H218c-19.3 0-35 15.7-35 35s15.7 35 35 35h587c19.3 0 35-15.7 35-35s-15.7-35-35-35H652V770h295.1c25.9 0 46.9-21.3 46.9-47.2V105c0-26-21-47-46.9-47zM924 700H100V128h824v572z" p-id="20037"></path><path d="M674 614c19.3 0 35-15.7 35-35V280c0-19.3-15.7-35-35-35s-35 15.7-35 35v299c0 19.3 15.7 35 35 35zM514 614c19.3 0 35-15.7 35-35V360c0-19.3-15.7-35-35-35s-35 15.7-35 35v219c0 19.3 15.7 35 35 35zM354 614c19.3 0 35-15.7 35-35V435c0-19.3-15.7-35-35-35s-35 15.7-35 35v144c0 19.3 15.7 35 35 35z" p-id="20038"></path></svg>