<?xml version="1.0" standalone="no"?><!DOCTYPE svg PUBLIC "-//W3C//DTD SVG 1.1//EN" "http://www.w3.org/Graphics/SVG/1.1/DTD/svg11.dtd"><svg t="1537404076098" class="icon" style="" viewBox="0 0 1024 1024" version="1.1" xmlns="http://www.w3.org/2000/svg" p-id="7192" xmlns:xlink="http://www.w3.org/1999/xlink" width="32" height="32"><defs><style type="text/css"></style></defs><path d="M155.02884634 349.22115366v455.36538455c0 35.17788455 29.27163455 64.38461545 65.09855732 64.38461545h583.74519268A64.57932724 64.57932724 0 0 0 868.97115366 804.58653821V349.22115366C868.97115366 314.04326911 839.69951911 284.83653821 803.87259634 284.83653821H220.12740366A64.57932724 64.57932724 0 0 0 155.02884634 349.22115366zM285.48557725 219.93269268v-32.77644268c0-53.28605732 43.61538455-96.70673089 96.70673007-96.7067309h260.78365447c53.54567275 0 96.77163455 43.09615366 96.77163455 96.7067309V219.93269268h64.125C875.65625 219.93269268 933.875 278.34615366 933.875 349.22115366v455.36538455c0 71.39423089-58.02403821 129.28846179-130.00240366 129.28846179H220.12740366C148.34375 933.875 90.125 875.46153821 90.125 804.58653821V349.22115366C90.125 277.82692276 148.14903821 219.93269268 220.12740366 219.93269268h65.29326909z m64.9038455 0h324.51923091v-32.77644268a31.67307725 31.67307725 0 0 0-31.93269187-31.80288455H382.19230731a32.12740366 32.12740366 0 0 0-31.80288455 31.80288455V219.93269268zM349.74038455 512C349.74038455 458.25961545 393.48557725 414.64423089 447.09615366 414.64423089h129.80769268C630.64423089 414.64423089 674.25961545 457.87019268 674.25961545 512 674.25961545 565.74038455 630.51442275 609.35576911 576.90384634 609.35576911h-129.80769268C393.35576911 609.35576911 349.74038455 566.12980732 349.74038455 512z m64.90384635 0c0 18.17307724 14.34375 32.45192275 32.45192276 32.45192275h129.80769268c17.84855731 0 32.45192275-14.60336545 32.45192277-32.45192275 0-18.17307724-14.34375-32.45192275-32.45192277-32.45192275h-129.80769268c-17.84855731 0-32.45192275 14.60336545-32.45192276 32.45192275zM90.125 479.54807725h324.5192309v64.9038455H90.125V479.54807725z m519.23076911 0h324.51923089v64.9038455H609.35576911V479.54807725z" p-id="7193"></path></svg>